<svg viewBox="0 0 32 24" focusable="false" class="chakra-icon css-1e1gwqd" width="4em" height="3em">
  <g>
    <path d="M10.582 13.064c-0.294 0 -0.574 0.029 -0.856 0 -0.477 -0.042 -0.674 -0.242 -0.702 -0.638 -0.042 -0.426 0.211 -0.838 0.603 -0.923 0.365 -0.07 0.744 -0.085 1.109 -0.085 0.266 0 0.392 -0.07 0.45 -0.341 0.294 -1.435 0.618 -2.854 0.926 -4.288 0.365 -1.661 0.842 -3.266 1.965 -4.686 -0.533 -0.114 -1.01 -0.227 -1.486 -0.298 -2.33 -0.382 -4.645 -0.298 -6.931 0.384C3.091 2.955 1.506 5.739 1.379 7.91c-0.098 1.704 0.912 3.038 2.512 3.408 0.982 0.227 1.642 -0.198 1.838 -1.208 0.056 -0.298 0.085 -0.61 0.126 -0.909 0.07 -0.44 0.323 -0.682 0.674 -0.696a0.8 0.8 0 0 1 0.786 0.667c0.042 0.198 0.056 0.426 0.029 0.64 -0.253 2.158 -2.203 3.435 -4.294 2.84C1.307 12.141 0.422 10.862 0.128 9.16c-0.224 -1.32 -0.168 -2.656 0.28 -3.947 0.45 -1.306 1.277 -2.328 2.342 -3.152C4.31 0.853 6.107 0.285 8.029 0.072c2.301 -0.256 4.504 0.213 6.707 0.781 1.797 0.454 3.606 0.837 5.43 1.165 1.459 0.254 2.877 0.099 4.168 -0.781 0.309 -0.213 0.659 -0.355 1.011 -0.454 0.603 -0.17 1.011 0.285 0.758 0.866a2.08 2.08 0 0 1 -0.715 0.838c-0.997 0.667 -2.133 0.938 -3.298 1.051 -1.571 0.157 -3.086 -0.242 -4.589 -0.597a40 40 0 0 0 -1.403 -0.312c-0.574 -0.114 -0.758 -0.029 -1.066 0.483a12.48 12.48 0 0 0 -1.488 3.763 478.4 478.4 0 0 0 -0.954 4.346c-0.014 0.07 -0.014 0.142 -0.014 0.298 0.506 0 0.997 -0.014 1.474 0q1.01 0.019 2.021 0.099a1.12 1.12 0 0 1 0.45 0.184c0.338 0.227 0.365 0.626 0.085 0.909 -0.294 0.314 -0.674 0.384 -1.066 0.37 -0.968 -0.014 -1.936 -0.042 -2.904 -0.056h-0.309c-0.323 1.264 -0.589 2.499 -0.968 3.691 -0.518 1.662 -1.15 3.266 -2.104 4.728 -0.926 1.392 -2.118 2.429 -3.789 2.741 -1.362 0.256 -2.638 0.142 -3.704 -0.923 -2.174 -2.173 -1.306 -5.651 1.642 -6.49 0.562 -0.157 1.094 -0.142 1.515 0.341 0.294 0.326 0.266 0.696 -0.085 0.938a2.56 2.56 0 0 1 -0.632 0.285c-0.28 0.099 -0.589 0.157 -0.87 0.285 -0.912 0.382 -1.347 1.051 -1.318 1.974 0.029 0.909 0.576 1.646 1.474 1.946 1.403 0.454 2.624 0.029 3.69 -0.909 1.138 -0.994 1.797 -2.315 2.259 -3.734 0.506 -1.547 0.968 -3.125 1.15 -4.827z" fill="currentColor"/>
    <path d="M23.002 22.848c-0.379 0.326 -0.73 0.696 -1.15 0.981 -1.698 1.179 -4.027 0.298 -4.73 -1.774 -0.421 -1.25 -0.477 -2.57 -0.112 -3.805 0.574 -1.96 0.939 -3.962 1.445 -5.934 0.392 -1.59 0.813 -3.166 1.262 -4.742a3.84 3.84 0 0 1 0.477 -1.008c0.182 -0.285 0.506 -0.314 0.813 -0.198 0.323 0.114 0.394 0.384 0.379 0.682 -0.014 0.213 -0.029 0.426 -0.112 0.626 -0.574 1.405 -0.87 2.882 -1.206 4.358 -0.547 2.357 -1.138 4.714 -1.67 7.085 -0.182 0.795 -0.238 1.619 0.098 2.4 0.294 0.696 0.8 1.15 1.586 1.208 0.589 0.042 1.038 -0.184 1.389 -0.653 0.518 -0.682 0.73 -1.477 0.885 -2.315a80 80 0 0 1 1.123 -5.141c0.309 -1.208 0.898 -2.286 1.824 -3.125 1.067 -0.965 2.33 -1.334 3.733 -1.022 1.432 0.312 2.427 1.619 2.456 3.238a12 12 0 0 1 -0.211 2.57 40 40 0 0 1 -1.053 4.075c-0.45 1.434 -1.194 2.683 -2.512 3.507 -1.6 1.008 -3.634 0.597 -4.73 -0.938l-0.126 -0.17c0.085 0.014 0.112 0.058 0.139 0.099m7.016 -8.506c0 -0.17 0.014 -0.326 0 -0.498 -0.098 -1.406 -1.445 -2.342 -2.694 -1.818 -1.179 0.483 -1.936 1.434 -2.259 2.642 -0.448 1.619 -0.758 3.28 -1.109 4.926a5.44 5.44 0 0 0 -0.155 1.334c0.056 1.406 1.306 2.272 2.61 1.803a3.632 3.632 0 0 0 1.613 -1.15c0.52 -0.653 0.829 -1.406 1.053 -2.216 0.435 -1.661 0.773 -3.323 0.941 -5.027" fill="currentColor"/>
  </g>
</svg>
